<?xml version="1.0" encoding="UTF-8"?>
<svg id="_图层_1" data-name="图层 1" xmlns="http://www.w3.org/2000/svg" viewBox="0 0 261.57 147.14">
  <defs>
    <style>
      .cls-1 {
        fill: #fff;
      }
    </style>
  </defs>
  <path class="cls-1" d="M0,147.05V0h261.57v147.14H0v-.08ZM108.51,110.53c.6-.02,2.09.03,2.1-.93l.09-19.38.16-4.88.18-5.06.32-7.21c.4-9.02.34-17.96.07-27-.03-.88-.37-1.55-.08-2.51,3.16,3.75,4.99,6.88,8.21,10.69,1.41,1.67,2.66,3.39,4.2,4.93.6.6,1.35,1.12,1.8,1.81.26.41.38.77.82.77.5,0,.65-.29.88-.71.25-.47.53-.95.71-1.43.84-2.28,2.74-1.41,1.65-3.28-.85-1.47-1.59-1.58-2.59-2.92-.39-.76-.44-1.27-1.17-1.73-1.6-1.01-2.49-2.87-4.05-3.9l-3.06-2.02c-2.92-1.92-7.53-7.3-7.92-7.36-.24-.04-.75.22-1.01.25-.49.06-1.01.11-1.33.38-.22.19-.16.81-.28,1.08-.95,1.72-1.71,3.52-2.6,5.31l-6.32,12.62-1.77,3.36c-.64,1.22-1.29,2.46-2.05,3.6-.45.68-.98,1.24-.42,1.99.92,1.24,3.23,4.83,4.51,4.82.21,0,.67-.24.77-.47.59-1.31,1.05-2.75,1.56-4.14l5.01-13.73c.71-1.95,1.15-3.86,2.07-5.7l-.06,15.95-.2,6.88-1.04,20.83c-.04.83-.16,1.63-.29,2.41l-.22,1.34-.42,2.53-.8,4.92-.93,3.99c-.26,1.1-.4,2.27-.17,3.32.31,1.44,1.79.64,3.69.59ZM140.82,69.69c-1.01.74-2.23,1.03-3.32,1.62l-8.25,4.45c-1.99,1.07-9.26,3.12-8.73,5.05.16.57.59.91,1.21.87.57-.03,1.43.07,1.91-.1,1.32-.46,2.52-.94,3.75-1.51l3.34-1.55,4.42-2.55c1.24-.72,2.53-1.46,3.86-1.99,2.61-1.02,4.78-2.4,6.41-4.76.3-.44.87-.94,1.17-1.43,1.18-1.93,2.14-3.93,2.85-6.12,1.8-5.57,1.42-12.46-2.53-17.11-3.07-3.61-6.63-4.98-11.25-5.73-4.24-.69-7.48-.05-11.73-.07-.86,0-1.93.13-2.39,1.04-.17.34-.2,1.22.03,1.53.93,1.29,2.3,1.43,2.26.99l-.09-.91c.69-.12,1.62-.14,2.41-.06l2,.21,1.45.18c1.11.14,2.23.18,3.28.56.84.31,1.75.78,2.64.86,1.85.16,3.22.86,4.63,1.94s2.72,2.26,3.71,3.86c.62,1,1.46,1.96,1.92,3.06,1.97,4.65,2.66,4.55.31,10.27l-.83,2.01c-.65,1.57-1.57,2.77-2.83,3.88-.52.46-1.03,1.1-1.59,1.51ZM156.71,114.56c1.12-.53,1.86-1.24,2.28-2.18l-.94-1.42c-.67-1.01-1.72-1.75-2.64-2.53l-1.34-1.13-2.96-2.59c-1.71-1.5-3.07-3.24-4.39-5.12-2.25-3.19-4.9-5.89-7.59-8.7-1.58-1.65-2.95-3.36-4.38-5.11l-2.82-3.44c-.18-.21-.83-.07-1.04.11-.63.55-.64,2.02-.71,2.96-.09,1.16-.16,2.3-.05,3.46l1.51,1.5,6.99,7.02c1.53,1.54,2.2,1.9,3.73,3.29l4.48,4.04,4.33,4.82,2.16,1.77,3.37,3.26Z"/>
  <path d="M108.51,110.53c-1.9.05-3.38.85-3.69-.59-.22-1.05-.08-2.22.17-3.32l.93-3.99.8-4.92.42-2.53.22-1.34c.13-.78.25-1.57.29-2.41l1.04-20.83.2-6.88.06-15.95c-.91,1.85-1.35,3.75-2.07,5.7l-5.01,13.73c-.51,1.39-.97,2.83-1.56,4.14-.1.23-.56.47-.77.47-1.27,0-3.59-3.58-4.51-4.82-.56-.76-.03-1.32.42-1.99.75-1.14,1.4-2.38,2.05-3.6l1.77-3.36,6.32-12.62c.89-1.79,1.65-3.59,2.6-5.31.12-.26.06-.89.28-1.08.32-.27.84-.32,1.33-.38.26-.03.77-.29,1.01-.25.39.06,5,5.44,7.92,7.36l3.06,2.02c1.56,1.03,2.45,2.9,4.05,3.9.73.46.78.97,1.17,1.73.99,1.34,1.74,1.45,2.59,2.92,1.09,1.88-.81,1-1.65,3.28-.18.48-.45.96-.71,1.43-.23.43-.38.71-.88.71-.44,0-.56-.36-.82-.77-.44-.7-1.2-1.22-1.8-1.81-1.54-1.54-2.79-3.26-4.2-4.93-3.22-3.81-5.05-6.95-8.21-10.69-.29.95.06,1.62.08,2.51.27,9.04.32,17.98-.07,27l-.32,7.21-.18,5.06-.16,4.88-.09,19.38c0,.97-1.5.91-2.1.93Z"/>
  <path d="M140.82,69.69c.56-.41,1.07-1.05,1.59-1.51,1.26-1.12,2.18-2.32,2.83-3.88l.83-2.01c2.35-5.72,1.67-5.62-.31-10.27-.47-1.1-1.3-2.06-1.92-3.06-.99-1.6-2.24-2.73-3.71-3.86s-2.79-1.78-4.63-1.94c-.89-.08-1.79-.54-2.64-.86-1.04-.39-2.17-.43-3.28-.56l-1.45-.18-2-.21c-.8-.08-1.72-.06-2.41.06l.09.91c.04.44-1.33.3-2.26-.99-.22-.31-.2-1.19-.03-1.53.46-.92,1.53-1.05,2.39-1.04,4.25.02,7.5-.62,11.73.07,4.62.75,8.18,2.13,11.25,5.73,3.96,4.65,4.34,11.54,2.53,17.11-.71,2.19-1.67,4.19-2.85,6.12-.3.49-.87.99-1.17,1.43-1.63,2.36-3.8,3.74-6.41,4.76-1.33.52-2.62,1.27-3.86,1.99l-4.42,2.55-3.34,1.55c-1.23.57-2.43,1.05-3.75,1.51-.48.17-1.35.07-1.91.1-.62.04-1.05-.31-1.21-.87-.53-1.92,6.74-3.97,8.73-5.05l8.25-4.45c1.09-.59,2.32-.88,3.32-1.62Z"/>
  <path d="M156.71,114.56l-3.37-3.26-2.16-1.77-4.33-4.82-4.48-4.04c-1.53-1.38-2.2-1.75-3.73-3.29l-6.99-7.02-1.51-1.5c-.11-1.16-.04-2.29.05-3.46.07-.94.09-2.41.71-2.96.2-.18.86-.32,1.04-.11l2.82,3.44c1.43,1.75,2.8,3.45,4.38,5.11,2.69,2.81,5.34,5.5,7.59,8.7,1.32,1.88,2.67,3.62,4.39,5.12l2.96,2.59,1.34,1.13c.92.78,1.97,1.52,2.64,2.53l.94,1.42c-.42.94-1.16,1.64-2.28,2.18Z"/>
</svg>